<?xml version="1.0" encoding="utf-8"?>
<!-- Generator: Adobe Illustrator 21.0.0, SVG Export Plug-In . SVG Version: 6.00 Build 0)  -->
<svg version="1.1" id="Layer_1" xmlns="http://www.w3.org/2000/svg" xmlns:xlink="http://www.w3.org/1999/xlink" x="0px" y="0px"
	 viewBox="0 0 4829.8 1200" style="enable-background:new 0 0 4829.8 1200;" xml:space="preserve">
<style type="text/css">
	.st0{fill-rule:evenodd;clip-rule:evenodd;fill:#0078A9;}
	.st1{fill:#0023A0;}
	.st2{fill:#FFAB00;}
	.st3{fill:#FF0000;}
	.st4{fill:#FFCC00;}
	.st5{fill:#D45500;}
	.st6{fill:#FFFFFF;}
</style>
<path class="st0" d="M3704.8,1039.9h-3.1c0-1.6-0.4-3.9-0.4-4.3c0-0.8,0-2.3-2.3-2.3h-4.6v6.6h-2v-15.6h6.6c2.7,0,5.1,0.8,5.1,3.5
	c0,2.3-0.8,3.1-1.6,3.9c0.8,0.8,1.6,1.6,1.6,3.1v2.7c0,0.8,0,0.8,0.8,0.8V1039.9z M3701.6,1028.6c0-1.9-1.2-1.9-1.9-1.9h-5.4v4.3
	h4.6C3700.5,1030.9,3701.6,1030.2,3701.6,1028.6 M3714.5,1031.7c0-9-7.4-16.4-17.1-16.4c-8.9,0-16.3,7.4-16.3,16.4
	c0,9.7,7.4,17.1,16.3,17.1C3707.1,1048.9,3714.5,1041.5,3714.5,1031.7 M3712.2,1031.7c0,8.2-6.6,14-14.8,14s-14-5.8-14-14
	c0-7.4,5.8-14,14-14S3712.2,1024.3,3712.2,1031.7"/>
<path class="st0" d="M4629.8,730.3c0,22.2-14.4,32.7-39.6,32.7h-48.2v-22.2h48.2c4.7,0,8.2-0.8,9.7-2.3c1.6-1.6,3.1-3.9,3.1-6.6
	c0-3.1-1.5-6.2-3.1-7.4c-1.6-1.6-4.3-2.3-8.9-2.3c-22.9-0.8-52.1,0.8-52.1-32.3c0-14.8,9.7-31.2,35.8-31.2h49.8v22.2h-45.9
	c-4.7,0-7.8,0-9.7,1.6c-2.3,2.3-3.9,4.7-3.9,8.2c0,3.9,2.3,6.2,5,7.4c3.1,0.8,6.2,1.6,9.7,1.6h13.6c14,0,22.9,3.1,29.2,8.2
	C4626.6,713.1,4629.8,719.8,4629.8,730.3 M4524.8,707.7c-6.2-5.1-15.2-8.2-29.1-8.2h-13.6c-3.5,0-6.6-0.8-9.7-1.6
	c-2.7-1.2-5.1-3.5-5.1-7.4c0-3.5,0.8-5.8,3.9-8.2c1.9-1.6,5-1.6,9.7-1.6h45.9v-22.2H4477c-26.8,0-35.8,16.4-35.8,31.2
	c0,33.1,29.1,31.5,52.1,32.3c4.7,0,7.4,0.8,8.9,2.3c1.5,1.2,3.1,4.3,3.1,7.4c0,2.7-1.6,5.1-3.1,6.6c-2.3,1.6-5.1,2.3-9.7,2.3h-48.2
	V763h48.2c25.3,0,39.6-10.5,39.6-32.7C4532.2,719.8,4529.1,713.1,4524.8,707.7 M4429.2,741.6h-58.7v-21h57.5v-21h-57.5v-19.1h58.7
	v-21.8H4346V763h83.2V741.6z M4319.2,663.7c-8.2-4.3-17.9-5.1-30.7-5.1h-57.1V763h25.3v-38.2h26.8c8.9,0,14,0.8,17.9,4.7
	c4.3,5.1,4.3,14,4.3,21V763h24.9v-20.3c0-9.3-0.8-14-3.9-19.1c-2.3-3.1-6.6-7-12.8-9c7-2.3,17.9-11.3,17.9-27.6
	C4331.7,675,4327.4,668.4,4319.2,663.7 M4177.7,658.6h-79.7l-32.3,34.3l-30.3-34.3h-100.7V763h99.1l31.9-34.3l30.7,34.3h48.2v-35.1
	h31.5c21.4,0,43.1-5.8,43.1-35.1C4219.3,664.5,4197.2,658.6,4177.7,658.6 M4299,701.8c-3.9,1.6-7.4,1.6-12,1.6l-30.3,0.8v-23.8h30.3
	c4.7,0,8.9,0,12,1.9c3.1,1.6,5,4.7,5,9C4304.1,696,4302.1,699.5,4299,701.8 M4177.7,706.9h-33v-26.5h33c9,0,14.8,3.5,14.8,12.5
	C4192.5,701.8,4186.7,706.9,4177.7,706.9 M4081.7,710.8l38.5-40.9V754L4081.7,710.8z M4021.1,741.6h-61.8v-21h55.2v-21h-55.2v-19.1
	h62.6l27.6,30.4L4021.1,741.6z M4560.6,583.1h-35.8l-47-78.3v78.3h-50.5l-9.7-23h-52.1l-9.7,23h-29.1c-12,0-27.6-2.7-36.5-11.7
	c-8.2-9-12.8-21-12.8-39.7c0.4-15.6,2.3-29.6,13.6-40.9c7.4-8.2,21-12.1,38.1-12.1h23.7v22.6h-23.7c-8.9,0-14.4,1.6-19.4,5.8
	c-4.7,4.7-6.6,12.9-6.6,23.8c0,11.3,2,19.5,6.6,24.9c3.5,3.5,10.5,5.1,17.1,5.1h11.3l35.8-82.2h36.9l42,98.5v-98.5h38.5l43.9,72.4
	v-72.4h25.7V583.1z M4264.8,478.7h-25.2v104.4h25.2V478.7z M4212,483.4c-8.2-4.7-17.1-4.7-29.9-4.7h-57.1v104.4h24.5v-37.8h26.8
	c8.9,0,14.8,0.8,18.7,4.3c4.3,5.5,3.5,14.4,3.5,20.2v13.2h25.6v-20.6c0-9-0.8-13.6-4.7-18.7c-2.3-3.1-6.6-6.6-12-8.9
	c7-3.1,17.9-11.3,17.9-27.7C4225.2,495,4220.1,488.4,4212,483.4 M4107,561.6h-58.3v-21h57.5v-21.4h-57.5v-18.7h58.3v-21.8h-83.6
	v104.4h83.6V561.6z M4004.8,478.7H3964l-30.7,70.9l-32.6-70.9h-40v98.5l-42.8-98.5h-36.9l-44.7,104.4h26.8l9.3-23h52.5l9.3,23h50.9
	v-81.8l36.5,81.8h21.4l36.5-81.8v81.8h25.2V478.7z M4408.6,537.9l-17.1-41.3l-17.1,41.3H4408.6z M4192.5,521.1
	c-3.9,2.3-7.4,2.3-12.4,2.3h-30.7v-23h30.7c4.3,0,9.3,0,12.4,1.6c3.1,2,4.7,5.1,4.7,9.7C4197.2,516.1,4195.6,520,4192.5,521.1
	 M3781.3,537.9l17.5-41.3l17.1,41.3H3781.3z M4623.5,151.1h-888.1v376.2l30.3-69.3h64.9l8.9,17.1V458h75.8l17.1,37l16.7-37H4191
	c11.3,0,21,2,28.4,8.2V458h66.5v8.2c10.9-6.2,25.3-8.2,41.6-8.2h96l8.9,17.1V458h70.7l10.5,17.1V458h69.2v146.1h-69.9l-13.6-22.2
	v22.2h-87.1l-9.7-23.8H4381l-9.7,23.8h-45.5c-17.9,0-31.1-4.3-40-9v9h-108v-33.5c0-4.7-0.8-5.4-3.9-5.4h-3.5v39h-208.7v-18.7
	l-7.4,18.7h-43.9l-7.4-17.9v17.9h-84.3l-8.9-23.8h-21.4l-9.7,23.8h-43.1V1045h888.1V777.4c-9.3,4.3-22.9,6.6-36.1,6.6h-64.9v-9
	c-7.4,5.8-21,9-33.4,9h-204v-33.5c0-4.7-0.8-4.7-4.7-4.7h-3.5V784h-67.2v-39.7c-11.3,5.4-23.7,5.4-35,5.4h-7.4V784h-82l-19.4-22.6
	l-21.4,22.6h-131.7V637.6h134.1l19.1,22.6l21-22.6h90.2c10.5,0,27.6,1.6,35,9v-9h80.5c8.1,0,23.7,1.6,34.2,9v-9h121.3v9
	c7-5.8,19.4-9,30.7-9h67.6v9c7.4-5.1,17.9-9,31.5-9h45.9V151.1z"/>
<path class="st1" d="M1114,373.9c-111.9,0-190.5,59.5-191.2,144.6c-0.7,63,56.2,98.2,99,119.1c44.2,21.4,58.9,35.2,58.8,54.3
	c-0.4,29.4-35.3,42.7-67.8,42.7c-45.2,0-69.3-6.6-106.4-22.9l-14.7-7l-15.8,98.1c26.5,12.2,75.3,22.8,126.1,23.3
	c118.8,0,196-58.8,197-149.6c0.5-50-29.8-87.8-95.1-119.1c-39.4-20.3-63.8-33.8-63.5-54.4c0-18.2,20.5-37.7,64.8-37.7
	c37-0.6,63.7,7.9,84.7,16.8l10.1,5l15.4-95C1193,383.5,1157.8,373.9,1114,373.9L1114,373.9z M762.7,381.5l-70.8,438.1H805
	l70.8-438.2L762.7,381.5L762.7,381.5z M597,381.9L486.2,680.5l-11.8-60.7c-27.6-74.4-87.3-152.4-156.8-184.1l101.3,383.4l119.8-0.1
	l178.1-437.2L597,381.9L597,381.9z M1418.2,382c-27.1,0-47.4,7.7-59.4,36.4l-167.9,401.5h118.8c0,0,19.4-54,23.8-65.9
	c13,0,128.4,0.2,144.8,0.2c3.5,15.3,13.8,65.6,13.8,65.6h105.1L1505.6,382L1418.2,382L1418.2,382z M1426.1,500.1l7.5,37.8
	c0,0,21.7,104.5,26.3,126.4H1366c9.4-25.1,45.1-122.5,45.1-122.5C1410.4,543,1420.4,516.5,1426.1,500.1L1426.1,500.1z"/>
<path class="st2" d="M383.5,381.7H201.1l-1.1,7.5C341.9,425.5,435.5,514.6,474.4,620l-39.7-201.4C428,390.9,408.1,382.7,383.5,381.7
	"/>
<circle id="path4286" class="st3" cx="2355.5" cy="600" r="364.9"/>
<circle id="circle4288" class="st4" cx="2846.5" cy="600" r="364.9"/>
<path id="circle4295" inkscape:connector-curvature="0" class="st5" d="M2601,330.6c-75.9,69-119.2,166.8-119.4,269.4
	c0.2,102.6,43.5,200.4,119.4,269.4c75.9-69,119.2-166.8,119.4-269.4C2720.2,497.4,2676.9,399.6,2601,330.6z"/>
<path id="path4332" inkscape:connector-curvature="0" class="st6" d="M2020.1,517.7V675h36.1V613c-0.2-14.5-0.7-28.7-0.9-43
	c3.3,10.7,6.7,21.6,9.8,31.9c2.7,8.2,5.1,15.8,7.6,23.4l16.7,49.7h29c3.3-9.8,6.7-19.8,10-29.6c4-11.6,8-23.4,11.8-35
	c4.5-13.8,8.7-27.6,12.9-41.4c-0.4,14-0.9,28.3-0.9,42.6V675h37.7V517.7h-53.5c-2.7,8.2-5.3,16.7-8.2,25.2
	c-3.6,11.4-7.6,22.7-11.1,34.3c-4.2,13.6-8.2,27-12,40.3c-4.2-13.6-8.2-27.2-12.7-41c-6.2-19.6-12.7-39.2-19.4-58.8L2020.1,517.7
	L2020.1,517.7z"/>
<path id="path4334" inkscape:connector-curvature="0" class="st6" d="M2286.6,562c-4.9-3.3-14.3-9.8-29.9-9.8
	c-18,0-34.5,8.9-45.5,23.2c-11.8,16-13.1,32.3-13.1,39.4c0,25.8,14.3,41.9,21.2,48.1c14,12.9,27.9,14.5,35.4,14.5
	c17.8,0,27.4-7.8,33.2-12v9.6h35V554.7h-36.3V562z M2242.3,634.2c-5.3-5.1-8.2-12-8.2-19.2c0-14.9,12.3-27.4,27.2-27.4
	c15.2,0,27.2,12.3,27.4,27.2c0,15.2-12,27.2-27.2,27.4C2254.3,642.2,2247.2,639.1,2242.3,634.2L2242.3,634.2z"/>
<path id="path4336" inkscape:connector-curvature="0" class="st6" d="M2422,590.1c-0.2-1.8-0.2-6.5-2-11.6
	c-3.3-10.2-14.3-26.1-41.2-26.1c-16.7,0-34.1,7.4-42.1,22.9c-1.8,3.1-4,8.5-4,17.2c0,4.5,0.4,14.9,9.4,23.8
	c4.9,4.7,11.1,8.2,25,11.8c9.6,2.5,14.9,3.1,18.3,7.1c1.6,2.2,2,4.7,2,5.8c0,2.7-2,9.4-10,9.6c-0.9,0-3.3-0.2-5.6-1.6
	c-5.1-2.7-5.3-8.5-5.8-10.2h-36.5c0.4,2.7,0.9,9.1,4.5,15.8c2.2,4.5,5.8,8.5,9.6,11.6c5.8,4.9,16,11.4,33.9,11.4
	c20.9,0,33-9.1,38.5-15.4c9.1-9.8,9.8-19.6,9.8-25.2c0-10.9-3.8-19.8-12.9-26.3c-8-6-15.6-7.8-25-10c-7.1-2-11.8-3.3-14.5-5.1
	c-2.5-1.8-4-4.5-4-7.8c0-4.9,3.6-9.1,8.7-9.1c1.6,0,3.3,0.4,4.7,1.3c3.8,2.2,4.5,5.8,4.9,10L2422,590.1L2422,590.1z"/>
<path id="path4338" inkscape:connector-curvature="0" class="st6" d="M2435.7,517.7v36.5h-13.4v28.1h12.9V675h36.5v-92.5h15.6v-28.1
	H2472v-36.8H2435.7L2435.7,517.7z"/>
<path id="path4340" inkscape:connector-curvature="0" class="st6" d="M2521.1,600.8c1.1-2.2,2.2-4.2,4-6c0.4-0.7,2.7-3.1,5.3-4.7
	c5.3-3.8,10.9-5.6,17.4-5.6c17.2,0,24.1,10.9,27,16.3H2521.1z M2609.1,627.1c0.4-4.2,0.9-8.2,0.9-12.5c0-18-8.7-35.9-22.3-47.2
	c-15.6-13.4-33-14.9-40.1-14.9c-18.5,0-36.5,8.5-48.4,22.7c-12.9,15.6-14.5,32.3-14.5,39.9c0,18.5,8.7,36.8,22.7,48.4
	c15.8,12.9,33,14.3,40.6,14.3c23.2,0,36.8-11.4,43-17.6c9.1-8.9,12.3-16.7,14.5-21.8h-37.2c-2.2,2.2-3.1,2.9-4.7,3.8
	c-4.2,2.9-10.2,4.2-15.6,4.2c-9.6,0-18.7-4-24.5-11.8c-2-2.7-4-6.9-4.2-7.4H2609.1L2609.1,627.1z"/>
<path id="path4342" inkscape:connector-curvature="0" class="st6" d="M2617.8,554.9V675h36.3v-67.1c0.2-6,0.9-8.5,2.7-11.1
	c5.6-8.5,19.8-8.9,20.9-8.9c2.9-0.2,5.1,0.2,7.6,0.4v-33.9c-4.7,0-16.7-0.9-27.4,9.8c-2.9,2.9-5.6,6.5-6.2,7.4v-16.7H2617.8
	L2617.8,554.9z"/>
<path id="path4344" inkscape:connector-curvature="0" class="st6" d="M2847.9,576.5c-2.7-9.1-8.2-27.6-27.6-43.4
	c-20.7-16.9-41.7-18.7-51.9-18.7c-20.1,0-34.5,6.9-41,10.7c-12.7,7.6-40.8,29.6-40.8,72.4c0,22.5,8.5,37,13.6,44.3
	c8,11.6,29.2,36.1,69.1,36.1c9.1,0,16.3-1.3,19.6-2.2c11.1-2.7,36.3-12.5,51.5-40.6c2.5-4.7,4.5-9.1,7.8-19.4h-43.7
	c-2.5,4-3.3,5.3-4.9,7.4c-6,7.1-14.7,11.1-17.2,12c-2.7,0.9-7.1,2.2-13.6,2.2c-24.3,0-35.4-18.3-38.5-25.6
	c-1.1-2.7-2.9-7.8-3.1-15.4c0-16.5,9.4-31.4,24.7-37.9c2.9-1.3,8.7-3.6,16.9-3.6c12.7,0,24.1,5.6,31.6,15.6c1.3,2,2.7,3.8,3.8,6
	H2847.9z"/>
<path id="path4346" inkscape:connector-curvature="0" class="st6" d="M2938.2,562c-4.9-3.3-14.3-9.8-29.9-9.8
	c-18,0-34.5,8.9-45.5,23.2c-11.8,16-13.1,32.3-13.1,39.4c0,25.8,14.3,41.9,21.2,48.1c14,12.9,27.9,14.5,35.4,14.5
	c17.8,0,27.4-7.8,33.2-12v9.6h35V554.7h-36.3V562z M2893.8,634.2c-5.3-5.1-8.2-12-8.2-19.2c0-14.9,12.3-27.4,27.2-27.4
	c15.2,0,27.2,12.3,27.4,27.2c0,15.2-12,27.2-27.2,27.4C2905.9,642.2,2898.7,639.1,2893.8,634.2L2893.8,634.2z"/>
<path id="path4348" inkscape:connector-curvature="0" class="st6" d="M2987.5,554.9V675h36.3v-67.1c0.2-6,0.9-8.5,2.7-11.1
	c5.6-8.5,19.8-8.9,20.9-8.9c2.9-0.2,5.1,0.2,7.6,0.4v-33.9c-4.7,0-16.7-0.9-27.4,9.8c-2.9,2.9-5.6,6.5-6.2,7.4v-16.7H2987.5
	L2987.5,554.9z"/>
<path id="path4350" inkscape:connector-curvature="0" class="st6" d="M3143.3,562.2c-5.1-3.3-14.3-9.8-29.9-9.8
	c-18,0-34.8,8.9-45.5,23.2c-12,15.8-13.1,32.3-13.1,39.4c0,25.8,14.3,41.9,20.9,48.1c14,12.9,27.9,14.5,35.7,14.5
	c17.6,0,27.4-7.8,33-12l0.2,9.4h34.8V517.7h-36.1L3143.3,562.2L3143.3,562.2z M3098.7,634.4c-5.1-5.3-8-12.3-8-19.4
	c0-14.9,12-27.2,27.2-27.2c14.9-0.2,27.2,12,27.2,27.2c0,14.9-12,27.2-27.2,27.2C3110.7,642.2,3103.6,639.1,3098.7,634.4
	L3098.7,634.4z"/>
</svg>
