<?xml version="1.0" encoding="utf-8"?>
<!-- Generator: Adobe Illustrator 21.0.0, SVG Export Plug-In . SVG Version: 6.00 Build 0)  -->
<svg version="1.1" id="Layer_1" xmlns="http://www.w3.org/2000/svg" xmlns:xlink="http://www.w3.org/1999/xlink" x="0px" y="0px"
	 viewBox="0 0 100.5 126" style="enable-background:new 0 0 100.5 126;" xml:space="preserve">
<style type="text/css">
	.st0{font-family:'MyriadPro-Regular';}
	.st1{font-size:36px;}
</style>
<path d="M43.3,91.9c-2.8,0-13-0.7-21.1,13.4S9.1,128.9,3.1,123.6c-6-5.3,2.8-13,9.2-21.5s10.2-15.9,10.2-22.9S19,65.1,16.1,61.9
	C13.3,58.7-4.7,42.5,3.8,35.8S19.7,52,23.9,57.7s12,10,19.4,10s15.2-4.4,19.4-10s11.6-28.6,20.1-21.9s-9.5,22.9-12.3,26.1
	c-2.8,3.2-6.3,10.2-6.3,17.3s3.8,14.5,10.2,22.9s15.2,16.2,9.2,21.5c-6,5.3-11.1-4.2-19.1-18.3S46.1,91.9,43.3,91.9z"/>
<g>
	<path d="M43.3,60.1c-10,0-13.9-8-14.1-8.3c-0.6-1.2-0.1-2.7,1.2-3.3c1.2-0.6,2.7-0.1,3.3,1.2c0.1,0.3,2.8,5.5,9.6,5.5
		c7.1,0,10.8-5.7,10.9-5.7c0.7-1.2,2.3-1.5,3.5-0.8c1.2,0.7,1.5,2.3,0.8,3.5C58.1,52.4,53.1,60.1,43.3,60.1z"/>
</g>
<path d="M39.9,34.6L39.2,5.1c-0.1-2.3,1.7-4.2,4-4.2c2.3-0.1,4.2,1.7,4.2,4c0,0.1,0,0.1,0,0.2l-0.7,29.5c0,1.9-1.6,3.4-3.5,3.3
	C41.4,37.9,39.9,36.4,39.9,34.6z"/>
<path d="M30.4,36.7l-7.5-23.6c-0.8-2.5,0.6-5.2,3.1-6c2.5-0.8,5.2,0.6,6,3.1c0.1,0.2,0.1,0.3,0.1,0.5L37,35c0.4,1.8-0.8,3.6-2.7,4
	C32.6,39.4,31,38.3,30.4,36.7z"/>
<path d="M22.3,42.3L11,24.7c-1.4-2.2-0.8-5.2,1.4-6.6c2.2-1.4,5.2-0.8,6.6,1.4c0.1,0.2,0.2,0.4,0.3,0.5L28.2,39
	c0.8,1.7,0.1,3.7-1.6,4.5C25.1,44.3,23.2,43.7,22.3,42.3z"/>
<path d="M49.5,35l4.9-24.3c0.5-2.6,3-4.2,5.6-3.7c2.6,0.5,4.2,3,3.7,5.6c0,0.2-0.1,0.3-0.1,0.5l-7.5,23.6c-0.6,1.8-2.5,2.8-4.3,2.2
	C50.2,38.4,49.2,36.7,49.5,35z"/>
<path d="M58.3,39l8.9-18.8c1.1-2.4,4-3.4,6.3-2.3s3.4,4,2.3,6.3c-0.1,0.2-0.2,0.4-0.3,0.5L64.3,42.3c-1,1.6-3.1,2-4.7,1
	C58.1,42.4,57.6,40.5,58.3,39z"/>
<text transform="matrix(1 0 0 1 85.4814 137.3613)" class="st0 st1">®</text>
</svg>
